<svg width="271px" height="105px" viewBox="0 0 271 105" version="1.1" xmlns="http://www.w3.org/2000/svg" xmlns:xlink="http://www.w3.org/1999/xlink">
    <!-- Generator: Sketch 49.1 (51147) - http://www.bohemiancoding.com/sketch -->
    <desc>Created with Sketch.</desc>
    <defs></defs>
    <g id="Logo" stroke="none" stroke-width="1" fill="none" fill-rule="evenodd">
        <g id="Desktop-1920px" transform="translate(-256.000000, -215.000000)" fill="#7843A5">
            <g id="Logo/LogoPrimary" transform="translate(256.000000, 215.000000)">
                <path d="M203,81 C198.294752,89.7878225 186.660982,90.969314 184,91 L59,91 C48.4050768,91 42.5037801,85.7860459 40,81 L24,81 C27.5596447,92.7511204 38.0411837,105 59,105 L184,105 C196.604821,105 214.247018,98.4160778 219,81 L201.243003,81" id="Fill-1"></path>
                <path d="M247,63 C251.313615,63 254,61.109578 254,59 C254,57.3922936 252.209688,56.5028257 249,56 L240,54 C231.574092,52.5942508 225,47.54263 225,39 C225,28.7497982 234.06011,23 247,23 C257.332257,23 269.197578,27.1373945 270,40 L255,40 C254.698813,36.2811254 251.514618,34 247,34 C242.887388,34 241,36.0914251 241,38 C241,39.6080245 242.087755,41.2964893 246,42 L255,44 C264.128465,45.708208 271,49.3587768 271,58 C271,69.2548991 259.739841,75 247,75 C234.361297,75 225.002471,69.963107 224,57 L238,57 C238.701602,61.2220183 241.984783,63 247,63 Z" id="s"></path>
                <path d="M202,9.0497561 C202,3.83642276 205.979499,0 211.000471,0 C215.926677,0 220,3.83642276 220,9.0497561 C220,14.1639024 215.926677,18 211.000471,18 C205.979499,18 202,14.1639024 202,9.0497561 Z M203,73 L203,25 L219,25 L219,73 L203,73 Z" id="i"></path>
                <path d="M163,9 L180,9 L180,24.9999999 L196,24.9999999 L196.223829,37.9999998 L180,37.9999998 L180,51.9999998 C180,56.9242566 182.481517,59.6706297 187.296367,59.6706297 C189.603768,59.6706297 192.389578,58.7031924 196,57.9999997 L198,71.9999996 C191.680171,74.0090761 187.81485,73.9999996 183,73.9999996 C171.263902,73.9999996 163,66.0015899 163,52.8377979 L163,9 Z" id="t"></path>
                <path d="M157,73 L141,73 L141,48 C141,41.0653945 137.417223,37 132,37 C129.09118,37 125.809272,38.7842691 123,42 L123,73 L107,73 L107,25 L123,25 L123,27 C126.912245,23.9862263 130.78378,23 136,23 C148.237333,23 157,31.1326972 157,45 L157,73 Z" id="n"></path>
                <path d="M84,73 L84,73.0120592 L84,73 L83,73 L83,70.9332098 C79.5509557,72.8528811 75.4819622,74 70.487178,74 C57.1769822,74 46,63.2299128 46,49.0006255 C46,34.6712618 57.1769822,24 70.487178,24 C75.4819622,24 79.5509557,25.1471189 83,27.0679703 L83,25 L99,25 L99,73 L84,73 Z M83,56.5178274 L83,41.4802816 C79.8277123,38.0949348 76.3481883,37 72.7674419,37 C66.0137588,37 61,42.3763379 61,49.0496408 C61,55.7213679 66.0137588,61 72.7674419,61 C76.3481883,61 79.8277123,60.0030861 83,56.5178274 Z" id="a"></path>
                <path d="M24,73 L24,25 L40,25 L40,73 L24,73 Z M23,9.0497561 C23,3.83642276 26.979499,0 32.0004707,0 C36.9266775,0 41,3.83642276 41,9.0497561 C41,14.1639024 36.9266775,18 32.0004707,18 C26.979499,18 23,14.1639024 23,9.0497561 Z" id="i"></path>
                <polygon id="L" points="0 73 16 73 16 1 0 1"></polygon>
            </g>
        </g>
    </g>
</svg>
